<?xml version="1.0" encoding="utf-8" ?><svg xmlns="http://www.w3.org/2000/svg" xmlns:xlink="http://www.w3.org/1999/xlink" width="1046" height="1046" viewBox="0 0 1046 1046"><path transform="scale(1.02148 1.02148)" d="M0 0L1024 0L1024 1024L0 1024L0 0Z"/><defs><linearGradient id="gradient_0" gradientUnits="userSpaceOnUse" x1="609.39392" y1="492.79263" x2="513.91443" y2="440.59586"><stop offset="0" stop-color="#C7974D"/><stop offset="1" stop-color="#F4CA78"/></linearGradient></defs><path fill="url(#gradient_0)" transform="scale(1.02148 1.02148)" d="M588.456 386.977L637.494 364.026C637.537 371.415 637.5 378.804 637.382 386.193C637.5 424.438 636.604 462.805 636.106 501.053C635.795 524.915 636.233 548.977 635.273 572.805C601.409 573.445 567.22 572.059 533.323 572.481C528.097 572.546 522.414 572.628 517.236 572.419C493.805 572.863 470.208 572.265 446.762 572.424C440.339 572.467 433.649 572.408 427.248 572.107C424.107 572.389 417.6 572.145 414.093 572.129L387.727 572.005C388.71 548.983 388.861 525.095 389.484 501.949L468.002 466.279C477.255 472.399 487.67 476.724 496.831 482.683C499.421 483.75 504.229 486.497 506.876 487.916C507.226 475.243 507.447 462.567 507.539 449.889C522.977 443.357 538.274 436.495 553.419 429.31C564.951 435.002 576.625 441.569 587.951 447.735C587.599 428.141 588.43 406.857 588.456 386.977Z"/><path transform="scale(1.02148 1.02148)" d="M631.44 372.646C631.425 374.712 631.426 376.779 631.443 378.846C631.727 382.169 631.254 390.549 634.267 392.169C635.163 392.65 635.525 393.393 636.107 394.191C637.36 392.441 636.332 389.027 637.382 386.193C637.5 424.438 636.604 462.805 636.106 501.053C635.795 524.915 636.233 548.977 635.273 572.805C601.409 573.445 567.22 572.059 533.323 572.481C528.097 572.546 522.414 572.628 517.236 572.419C519.446 572.005 524.847 571.98 527.463 571.876C535.469 571.545 543.477 571.282 551.488 571.086C552.593 569.548 554.555 567.258 554.57 565.369C554.619 559.326 553.81 552.064 555.471 546.249C555.902 540.57 555.638 531.872 555.833 525.69L581.893 538.568C584.366 538.75 584.998 538.963 586.895 537.328C587.499 535.303 587.576 536.234 586.898 534.428C586.381 524.172 586.869 509.155 586.927 498.564C585.607 497.789 584.281 497.026 582.948 496.274C596.977 498.762 590.776 494.987 593.384 485.195C593.888 477.074 593.41 465.589 593.554 457.168C593.932 434.965 593.514 412.232 594.386 390.076C606.688 384.161 619.039 378.351 631.44 372.646Z"/><defs><linearGradient id="gradient_1" gradientUnits="userSpaceOnUse" x1="660.00714" y1="510.58624" x2="590.64288" y2="480.47684"><stop offset="0" stop-color="#905D1D"/><stop offset="1" stop-color="#C19045"/></linearGradient></defs><path fill="url(#gradient_1)" transform="scale(1.02148 1.02148)" d="M629.08 565.603C628.879 527.525 630.002 488.185 630.327 449.997C630.368 433.976 630.514 417.955 630.766 401.936C630.881 395.147 630.722 385.199 631.443 378.846C631.727 382.169 631.254 390.549 634.267 392.169C635.163 392.65 635.525 393.393 636.107 394.191C637.36 392.441 636.332 389.027 637.382 386.193C637.5 424.438 636.604 462.805 636.106 501.053C635.795 524.915 636.233 548.977 635.273 572.805C601.409 573.445 567.22 572.059 533.323 572.481C528.097 572.546 522.414 572.628 517.236 572.419C519.446 572.005 524.847 571.98 527.463 571.876C535.469 571.545 543.477 571.282 551.488 571.086C552.593 569.548 554.555 567.258 554.57 565.369C554.619 559.326 553.81 552.064 555.471 546.249C555.902 540.57 555.638 531.872 555.833 525.69L581.893 538.568C584.366 538.75 584.998 538.963 586.895 537.328C587.499 535.303 587.576 536.234 586.898 534.428C586.381 524.172 586.869 509.155 586.927 498.564C585.607 497.789 584.281 497.026 582.948 496.274C596.977 498.762 590.776 494.987 593.384 485.195C593.65 504.177 593.047 523.27 593.07 542.264C593.079 549.996 592.966 557.824 592.597 565.542C604.757 565.651 616.919 565.671 629.08 565.603Z"/><path transform="scale(1.02148 1.02148)" d="M555.833 525.69L581.893 538.568L586.57 540.98L586.345 565.62C576.027 565.796 565.708 565.827 555.39 565.712C555.453 559.445 555.659 552.448 555.471 546.249C555.902 540.57 555.638 531.872 555.833 525.69Z"/><path fill="#FCE9AB" transform="scale(1.02148 1.02148)" d="M389.484 501.949L468.002 466.279C477.255 472.399 487.67 476.724 496.831 482.683C499.054 485.564 501.796 485.367 503.486 488.046L503.158 488.598C498.413 488.24 493.241 484.708 490.916 484.821C492.203 486.007 504.14 492.242 506.482 493.533L506.256 511.672L501.528 509.4C502.702 510.757 503.719 511.545 503.816 513.27C502.01 513.742 495.349 510.495 491.409 509.782C484.773 506.525 477.077 502.958 470.673 499.432L470.049 566.195C474.032 568.183 491.266 565.182 493.74 568.674C493.459 569.551 493.059 570.533 492.031 570.708C475.427 573.529 442.169 570.476 427.248 572.107C424.107 572.389 417.6 572.145 414.093 572.129L387.727 572.005C388.71 548.983 388.861 525.095 389.484 501.949Z"/><path transform="scale(1.02148 1.02148)" d="M470.98 474.434C477.528 477.722 484.251 481.886 490.916 484.821C492.203 486.007 504.14 492.242 506.482 493.533L506.256 511.672L501.528 509.4C492.468 505.395 479.723 498.466 470.633 493.874C470.821 487.396 470.936 480.915 470.98 474.434Z"/><path transform="scale(1.02148 1.02148)" d="M430.075 489.477L430.737 489.832C431.134 493.082 430.654 507.131 430.621 511.435L430.013 566.079L394.488 566.009L393.949 565.824C393.355 564.672 394.437 512.85 394.517 505.884C404.455 500.569 419.572 494.24 430.075 489.477Z"/><path transform="scale(1.02148 1.02148)" d="M465.279 472.897L466 472.878C466.66 474.02 465.625 532.147 465.516 537.963C459.617 534.69 453.647 531.546 447.611 528.534L435.482 522.303L436 486.595C445.729 481.964 455.489 477.398 465.279 472.897Z"/><path transform="scale(1.02148 1.02148)" d="M435.554 528.363C445.536 533.029 455.674 538.301 465.624 543.153L465.444 566.298C455.236 566.143 445.028 566.096 434.82 566.158C434.981 553.558 435.225 540.96 435.554 528.363Z"/><path transform="scale(1.02148 1.02148)" d="M470.673 499.432C477.077 502.958 484.773 506.525 491.409 509.782L506.066 517.037C505.701 533.372 505.509 549.711 505.491 566.05L483.161 565.975C480.139 565.968 472.857 565.822 470.049 566.195L470.673 499.432Z"/><path transform="scale(1.02148 1.02148)" d="M556.519 482.439C564.402 486.663 574.921 492.653 582.948 496.274C584.281 497.026 585.607 497.789 586.927 498.564C586.869 509.155 586.381 524.172 586.898 534.428C576.512 529.439 566.231 524.233 556.063 518.814C555.937 506.943 556.358 494.4 556.519 482.439Z"/><path transform="scale(1.02148 1.02148)" d="M551.447 435.992C551.755 437.765 551.596 446.043 551.583 448.38C551.541 458.027 551.429 467.675 551.248 477.321L550.103 565.802C537.384 566.106 523.896 565.918 511.119 565.946C510.28 562.276 511.312 541.727 511.375 537.002L512.468 453.511C525.553 447.878 538.547 442.037 551.447 435.992Z"/><path transform="scale(1.02148 1.02148)" d="M557.028 438.613C563.43 441.394 580.974 451.685 587.839 455.494C587.407 467.11 587.512 479.211 587.459 490.867C577.587 486.003 566.097 479.584 556.495 474.144C556.501 462.45 556.909 450.38 557.028 438.613Z"/><defs><linearGradient id="gradient_2" gradientUnits="userSpaceOnUse" x1="635.46869" y1="342.2663" x2="535.87103" y2="338.19775"><stop offset="0" stop-color="#C09347"/><stop offset="1" stop-color="#F1CC84"/></linearGradient></defs><path fill="url(#gradient_2)" transform="scale(1.02148 1.02148)" d="M593.24 291.616C605.787 294.307 625.355 297.869 637.355 301.227C637.061 317.078 637.142 336.417 636.326 351.996L627.507 348.975C627.736 337.235 628.154 324.923 627.964 313.229C601.083 341.191 571.835 366.776 540.546 389.698C532.533 395.565 520.466 404.431 511.9 409.314C513.045 406.736 538.316 390.063 542.592 386.98C539.461 386.271 536.653 385.605 533.561 384.74C529.234 387.766 506.436 404.42 503.032 404.263C515.07 395.648 527.488 388.069 539.651 379.098C568.934 357.452 596.266 333.283 621.332 306.868C613.196 305.603 599.478 302.531 591.365 300.443C592.009 297.505 592.633 294.562 593.24 291.616Z"/><defs><linearGradient id="gradient_3" gradientUnits="userSpaceOnUse" x1="547.90125" y1="629.1944" x2="509.7139" y2="631.21692"><stop offset="0" stop-color="#B07E36"/><stop offset="1" stop-color="#D1A259"/></linearGradient></defs><path fill="url(#gradient_3)" transform="scale(1.02148 1.02148)" d="M510.354 604.411C517.825 604.336 525.443 604.102 532.862 604.476C541.497 604.912 547.548 610.73 546.275 619.596C545.565 624.541 542.52 626.957 538.783 629.651C539.482 629.877 540.177 630.113 540.868 630.36C549.497 633.462 551.403 640.648 548.337 648.811C541.553 660.493 521.932 657.497 510.123 657.233C510.329 639.626 510.406 622.019 510.354 604.411Z"/><path transform="scale(1.02148 1.02148)" d="M517.191 633.635C524.055 633.489 540.931 631.125 541.721 640.557C542.019 644.112 541.189 646.009 539.002 648.66C533.923 651.923 523.745 650.816 517.224 650.83L517.191 633.635Z"/><path transform="scale(1.02148 1.02148)" d="M517.351 611.017C525.926 610.94 548.03 609.57 536.809 625.166C531.524 628.685 523.702 627.668 517.224 627.568C517.216 622.051 517.259 616.534 517.351 611.017Z"/><path fill="#FCE9AB" transform="scale(1.02148 1.02148)" d="M533.561 384.74C536.653 385.605 539.461 386.271 542.592 386.98C538.316 390.063 513.045 406.736 511.9 409.314C510.633 410.566 497.715 418.372 495.629 419.63C463.795 438.812 428.038 456.763 392.46 467.867L392.475 457.664C419.777 448.586 446.168 436.968 471.301 422.963C481.099 417.509 492.814 409.593 502.17 404.708L503.032 404.263C506.436 404.42 529.234 387.766 533.561 384.74Z"/><defs><linearGradient id="gradient_4" gradientUnits="userSpaceOnUse" x1="489.51389" y1="639.40393" x2="444.87473" y2="614.79816"><stop offset="0" stop-color="#E5B86A"/><stop offset="1" stop-color="#FFECAD"/></linearGradient></defs><path fill="url(#gradient_4)" transform="scale(1.02148 1.02148)" d="M449.009 604.465L456.199 604.422C456.302 613.147 456.18 621.962 456.088 630.757C455.994 639.76 456.058 651.508 468.244 651.721C483.259 651.983 480.456 633.475 480.624 623.442C480.728 617.238 480.591 610.744 480.566 604.47L487.978 604.422L488.004 610.75C488.087 621.517 488.679 633.013 487.475 643.626C485.736 658.95 463.529 662.89 453.873 652.852C452.02 650.918 450.706 648.532 450.059 645.933C448.284 639.059 449.001 613.572 449.009 604.465Z"/><path fill="#A26F2C" transform="scale(1.02148 1.02148)" d="M615.268 603.149L615.78 603.113C624.323 602.577 629.823 604.633 636.183 610.189L632.101 615.196C617.54 604.685 601.888 610.45 600.069 628.966C598.501 644.916 612.465 656.667 627.257 648.853C629 647.684 630.322 646.308 631.844 644.864L636.051 649.567C627.146 658.284 612.933 661.942 603.069 653.972C584.442 638.921 589.517 606.68 615.268 603.149Z"/><defs><linearGradient id="gradient_5" gradientUnits="userSpaceOnUse" x1="510.68311" y1="670.4353" x2="509.81689" y2="685.0647"><stop offset="0" stop-color="#DBB55D"/><stop offset="1" stop-color="#FFE5B9"/></linearGradient></defs><path fill="url(#gradient_5)" transform="scale(1.02148 1.02148)" d="M388.947 675.803C410.997 675.301 436.524 676.264 459.023 676.351L630.747 676.954C631.849 677.836 631.511 678.074 631.776 679.98L466.882 679.53C442.351 679.404 414.723 680.029 390.576 679.187C389.068 678.187 389.522 678.207 388.947 675.803Z"/><path fill="#FCE9AB" transform="scale(1.02148 1.02148)" d="M409.042 604.1C417.982 603.357 423.141 604.707 430.5 609.709C429.209 611.489 428.054 613.352 426.866 615.204C421.248 611.431 413.316 608.446 406.835 611.336C385.447 620.873 395.371 661.513 422.142 648.504C423.558 647.454 425.206 645.914 426.554 644.726C427.888 646.367 429.329 648.029 430.696 649.653C411.746 668.092 385.328 653.128 387.461 628.238C388.583 615.154 396.089 606.78 409.042 604.1Z"/><path fill="#A26F2C" transform="scale(1.02148 1.02148)" d="M566.48 603.518L574.027 603.492L573.869 657.11L566.512 657.074L566.48 603.518Z"/><path fill="#FCFAFB" transform="scale(1.02148 1.02148)" d="M557.667 691.288C563.537 690.732 568.772 694.975 569.444 700.833C570.115 706.691 565.976 712.008 560.133 712.795C556.249 713.318 552.386 711.701 550.033 708.568C547.679 705.435 547.202 701.275 548.786 697.691C550.369 694.107 553.766 691.658 557.667 691.288Z"/><path transform="scale(1.02148 1.02148)" d="M556.205 693.976C560.644 692.62 565.346 695.103 566.729 699.535C568.112 703.966 565.658 708.683 561.235 710.093C556.774 711.516 552.007 709.036 550.611 704.565C549.216 700.095 551.726 695.344 556.205 693.976Z"/><path fill="#FCFAFB" transform="scale(1.02148 1.02148)" d="M430.246 691.396C435.921 690.636 441.176 694.519 442.115 700.168C443.054 705.817 439.339 711.191 433.723 712.308C429.929 713.063 426.024 711.692 423.535 708.73C421.046 705.769 420.367 701.686 421.764 698.079C423.161 694.471 426.411 691.91 430.246 691.396Z"/><path transform="scale(1.02148 1.02148)" d="M429 693.497C440.492 692.889 443.353 704.993 433.926 710.285C432.972 710.403 432.126 710.528 431.161 710.454C428.882 710.275 426.795 709.114 425.441 707.272C421.72 702.271 424.157 696.613 429 693.497Z"/><path fill="#FCFAFB" transform="scale(1.02148 1.02148)" d="M574.84 691.528C578.498 691.42 588.704 690.813 588.445 697.851C588.363 700.096 585.509 702.208 583.642 703.316C585.024 705.208 589.089 710.384 589.458 712.369C588.112 712.939 588.855 712.81 587.036 712.108C585.194 709.515 581.988 704.094 579.26 703.453C577.149 705.441 577.584 709.031 577.147 712.151C575.935 712.65 576.518 712.69 575.357 712.218C574.706 710.818 574.874 694.62 574.84 691.528Z"/><path transform="scale(1.02148 1.02148)" d="M577.499 693.511C581.046 693.457 584.092 693.082 585.694 696.661C585.564 698.843 585.58 698.727 584.526 700.655C581.998 701.411 579.965 702.379 577.898 700.572C577.059 698.532 577.417 695.819 577.499 693.511Z"/><path fill="#FCFAFB" transform="scale(1.02148 1.02148)" d="M611.647 691.118C612.074 691.299 612.598 691.47 612.896 691.793C614.985 694.047 621.798 709.904 621.985 712.137L621.089 712.448C617.282 710.558 620.603 706.456 613.156 706.487L607.254 706.402C605.904 709.571 605.519 710.627 603.026 712.91L602.688 712.564C603.269 708.246 609.442 695.417 611.647 691.118Z"/><path transform="scale(1.02148 1.02148)" d="M612.125 694.845C613.519 696.937 616.011 701.778 615.355 704.202L613.412 704.551C611.384 704.586 610.217 705.055 609.022 703.403C608.937 701.255 611.183 697.145 612.125 694.845Z"/><path fill="#FCFAFB" transform="scale(1.02148 1.02148)" d="M446.877 690.732C449.212 691.906 458.851 704.029 461.554 707.032C461.537 703.932 461.058 693.894 462.715 691.806C464.89 694.08 464.393 709.99 463.546 713.227C460.862 710.945 452.364 700.048 449.023 696.287C449.09 700.098 449.83 709.655 448.286 712.516L447.57 712.567C446.073 709.57 446.438 694.466 446.877 690.732Z"/><path fill="#FCFAFB" transform="scale(1.02148 1.02148)" d="M489.432 690.668L490.851 691.217C493.818 695.452 487.53 707.729 495.878 710.176C497.393 710.621 499.023 710.438 500.402 709.668C506.735 706.062 500.836 692.995 504.664 691.023L505.61 691.446L505.786 692.478C505.851 698.961 507.632 714.358 497.033 712.897C494.532 712.538 492.299 711.14 490.884 709.048C488.085 704.896 488.554 695.444 489.432 690.668Z"/><path fill="#FCFAFB" transform="scale(1.02148 1.02148)" d="M409.218 691.14C411.449 691.178 417.233 691.818 417.312 694.788C415.02 696.289 413.008 693.966 410.067 693.77C399.475 693.065 399.145 712.175 413.16 710.242C414.804 709.061 415.17 708.373 417.069 708.775L417.109 709.653C412.184 715.747 402.326 712.523 400.283 705.298C399.361 702.115 399.847 698.689 401.618 695.888C403.615 692.74 405.788 691.887 409.218 691.14Z"/><path fill="#FCFAFB" transform="scale(1.02148 1.02148)" d="M474.979 691.026C478.535 691.073 479.55 691.392 482.452 693.461L481.75 694.511L480.552 694.731C477.861 693.538 474.709 692.515 472.38 695.166C473.058 700.14 482.239 701.462 483.434 706.794C484.175 710.098 479.377 712.261 476.922 712.876C473.565 712.609 471.836 712.025 469.48 709.623L469.889 708.93C472.881 708.644 478.908 713.798 480.703 707.249C479.02 701.776 461.35 699.009 474.979 691.026Z"/><path fill="#FCFAFB" transform="scale(1.02148 1.02148)" d="M528.333 691.198C532.763 690.683 540.411 690.771 544.618 692.002L544.762 692.639C542.219 693.555 541.036 693.364 538.354 693.335C538.242 697.53 538.232 701.815 538.177 706.02C538.189 708.658 538.345 709.977 537.592 712.531L536.846 712.847C534.96 710.797 535.844 697.357 535.871 693.353C532.558 693.39 530.006 694.215 528.333 691.198Z"/><path fill="#FCFAFB" transform="scale(1.02148 1.02148)" d="M513.374 690.612L514.763 691.085C516.208 692.909 515.554 706.973 515.506 710.388C518.205 710.339 522.644 709.96 524.932 710.888L525.463 712.428L513.206 712.545C513.237 707.022 512.797 695.34 513.374 690.612Z"/><path fill="#FCFAFB" transform="scale(1.02148 1.02148)" d="M595.332 691.125C596.084 691.306 596.34 691.448 597.056 691.742C598.002 694.689 598.028 710.317 596.79 713.149L595.603 712.141C594.626 708.971 595.235 694.994 595.332 691.125Z"/></svg>